<svg xmlns="http://www.w3.org/2000/svg" viewBox="1 4.5 22 15" fill="none" stroke-width="2.5" stroke-linecap="round" stroke-linejoin="round">
  <defs>
    <linearGradient id="g" x1="0%" y1="0%" x2="100%" y2="100%">
      <stop offset="0%" stop-color="#e3fcec"/>
      <stop offset="26%" stop-color="#44a06c"/>
      <stop offset="100%" stop-color="#2a7a4c"/>
    </linearGradient>
  </defs>
  <path
    d="M4.5 16.8 C2.6 16.4 1.9 13.9 3.4 12.6 C2.9 10.4 5 8.6 7.1 9.2 C7.7 6.6 11 5.4 13 7.1 C14.8 5.6 17.7 6.6 18.1 8.9 C20.3 9 21.7 11 21 13 C22.4 14.6 21.3 16.7 19.3 16.9 C17.9 18.6 15.6 18.4 14.2 17.4 C12.8 18.7 10.6 18.7 9.2 17.5 C7.7 18.5 5.6 18.2 4.5 16.8 Z"
    stroke="url(#g)"
  />
</svg>
